<?xml version="1.0" encoding="UTF-8" standalone="no"?>
<svg
   xmlns:dc="http://purl.org/dc/elements/1.1/"
   xmlns:cc="http://creativecommons.org/ns#"
   xmlns:rdf="http://www.w3.org/1999/02/22-rdf-syntax-ns#"
   xmlns:svg="http://www.w3.org/2000/svg"
   xmlns="http://www.w3.org/2000/svg"
   xmlns:sodipodi="http://sodipodi.sourceforge.net/DTD/sodipodi-0.dtd"
   xmlns:inkscape="http://www.inkscape.org/namespaces/inkscape"
   width="99.999794"
   height="110.507"
   viewBox="0 0 99.999792 110.507"
   overflow="visible"
   version="1.1"
   id="svg10"
   sodipodi:docname="sheep_optimized.svg"
   style="overflow:visible"
   inkscape:version="0.92.1 r15371">
  <metadata
     id="metadata16">
    <rdf:RDF>
      <cc:Work
         rdf:about="">
        <dc:format>image/svg+xml</dc:format>
        <dc:type
           rdf:resource="http://purl.org/dc/dcmitype/StillImage" />
        <dc:title></dc:title>
      </cc:Work>
    </rdf:RDF>
  </metadata>
  <defs
     id="defs14" />
  <sodipodi:namedview
     pagecolor="#ffffff"
     bordercolor="#666666"
     borderopacity="1"
     objecttolerance="10"
     gridtolerance="10"
     guidetolerance="10"
     inkscape:pageopacity="0"
     inkscape:pageshadow="2"
     inkscape:window-width="1920"
     inkscape:window-height="1017"
     id="namedview12"
     showgrid="false"
     fit-margin-top="0"
     fit-margin-left="0"
     fit-margin-right="0"
     fit-margin-bottom="0"
     inkscape:zoom="6.2216806"
     inkscape:cx="3.6701971"
     inkscape:cy="56.364602"
     inkscape:window-x="-8"
     inkscape:window-y="-8"
     inkscape:window-maximized="1"
     inkscape:current-layer="g8" />
  <g
     id="g8"
     style="clip-rule:evenodd;fill:none;fill-opacity:1;fill-rule:evenodd;stroke:#000000;stroke-width:10.44946766;stroke-miterlimit:4;stroke-dasharray:none;stroke-opacity:1"
     transform="matrix(0.17423868,0,0,0.17423868,5.6927855,7.6242105)">
    <path
       style="display:inline;fill:none;fill-opacity:1;stroke:#384145;stroke-width:10.44946766;stroke-miterlimit:4;stroke-dasharray:none;stroke-opacity:1"
       d="m 515.66605,526.27412 c -1.79331,-36.42086 -19.30338,-68.413 -36.28659,-99.48002 -20.48278,-29.92229 -13.92859,-72.00233 -39.35971,-97.88758 -22.97589,-16.51462 -47.40291,-42.12002 -43.19099,-72.60692 15.54093,-21.4345 32.70038,-43.44809 18.56135,-72.31559 -6.84338,-27.41002 -15.69759,-55.40789 -1.05843,-82.25222 C 433.27954,65.452852 367.42771,73.687885 379.84094,40.537682 380.17523,15.848009 361.30622,-35.955453 330.90423,-9.2566845 318.52905,14.265114 319.33013,47.655565 289.7258,59.014371 c -28.35489,14.901724 -61.7474,3.208589 -90.28808,19.385284 -25.1724,9.05592 -50.26817,-11.761889 -75.46662,-0.0677 -47.171536,14.57561 -66.833471,68.790635 -65.465791,114.105335 1.158264,25.45359 7.507804,72.476 -27.615886,76.26115 -29.1088751,4.66105 -48.751016,45.2914 -31.67353811,71.90771 9.45344401,37.3843 17.90701611,75.02524 21.99898011,113.33971 6.758156,30.12863 51.940525,48.12674 72.892259,21.71782 12.473976,-30.87382 -20.519053,-58.93128 -15.28652,-90.87172 0.66966,-36.71488 53.658516,-37.9504 56.598036,-73.73206 -0.49179,-55.46933 42.93644,-10.8793 43.93175,18.67058 0.56112,32.04626 14.79068,61.28754 28.8558,89.37345 -7.06099,31.11233 18.15642,57.28217 17.42559,87.23272 -5.00898,29.9393 19.04062,63.31655 51.54892,56.06963 45.30671,-7.49535 15.91823,-53.20261 18.05969,-81.66773 -0.89403,-14.28669 10.04598,-38.90466 15.34827,-12.54978 13.40842,30.37358 76.46971,23.35623 60.92697,-15.28469 -8.43409,-26.68969 -31.10397,-46.07261 -36.67739,-73.25474 4.98782,-40.42336 40.69468,19.18479 53.35904,30.30795 18.17425,25.26858 37.54234,50.49207 44.05273,82.22398 9.96561,25.89602 17.33051,67.58904 53.87441,64.02266 15.37368,-0.76162 30.61628,-13.67618 29.54163,-29.92984 z m -515.71299611,-178.821 0.241875,0.0476 z m 94.70400011,120.399 c 2.7946,23.62883 -13.380137,-1.13529 -23.499612,15.39664 -12.846191,14.56408 -53.316504,-26.71399 -21.399513,-12.51914 9.612247,-5.23238 43.871178,-21.98282 44.899125,-2.8775 z M 176.85973,304.06019 c -2.6865,-1.15377 2.05335,-1.79012 0,0 z m 156.50132,82.34293 c 11.60634,28.27724 38.8779,52.58396 40.35827,82.87045 1.59735,-9.52954 -4.41842,8.1452 -17.20101,2.29907 -3.62436,33.18618 -53.21991,1.52075 -52.14743,-22.81233 -14.35574,-18.0996 -29.88815,-55.54929 -30.53749,-73.09991 35.36749,16.80881 47.92505,5.28756 60.8024,-0.11937 0.5535,1.44644 -1.82824,9.41567 -1.27474,10.86211 z m 178.762,144.124 c -0.44403,9.93007 -13.5791,13.63104 -9.66569,0.27795 -0.15322,41.66516 -60.93188,16.85498 -57.05011,-15.32488 -14.69669,-27.54997 -19.24188,-59.91765 -38.18777,-84.96102 -15.19921,-27.11309 -44.71674,-41.69209 -55.50543,-70.22063 -5.50241,-19.68224 29.10008,-48.33634 20.55335,-56.74456 -15.69778,25.19516 -22.47438,64.7314 -57.20292,70.42343 -20.11405,14.60829 -58.79939,-5.56345 -31.11886,-27.3932 8.57412,-12.49052 9.95254,-33.78239 5.0435,-45.72278 8.56153,35.2274 -35.43804,65.80978 -15.14395,100.04957 19.16237,24.21517 24.2641,54.45756 19.98476,84.54753 -6.3815,23.17077 24.39692,67.1174 -13.57741,71.1486 -10.11945,-3.56921 -5.78491,-25.10064 -7.58313,-4.8464 -23.23302,21.18443 -52.95238,-20.59367 -42.90209,-45.05963 -5.8404,-32.05991 -18.33743,-60.32228 -21.33569,-92.45148 -18.00325,-36.10277 -28.6251,-75.83181 -26.82301,-116.41224 5.37892,-10.97991 -12.58947,-59.42027 -5.14993,-26.22259 7.84441,17.0116 11.66746,32.33896 -21.10734,14.82567 -36.94094,-22.49674 -43.89854,-65.87232 -45.37336,-105.78912 -7.06723,21.90117 8.59249,66.32994 21.6447,93.3822 17.51841,36.2154 -17.85665,68.02721 -46.750586,83.53794 -17.941127,23.40956 -5.7393,56.15715 3.38233,80.90999 8.571,26.70408 -36.392156,23.35732 -51.416969,25.99902 C 11.674478,449.52644 25.188539,412.75173 13.68238,388.96485 10.466698,360.37108 -6.0661871,333.51384 -2.3796361,304.35097 4.3332999,277.98433 31.228056,276.1277 50.554337,266.25775 64.018857,242.1387 63.322369,214.09075 61.429274,187.3333 60.089323,143.33327 83.983854,92.736805 128.88545,79.872565 c 20.26917,-8.09288 57.70999,-0.77608 40.41866,24.402475 12.60852,36.0948 62.26866,1.57554 73.6679,31.72462 5.49773,15.09651 1.02178,44.33692 4.0414,45.52017 2.87102,7.85214 9.10823,10.56979 6.62916,5.79041 -12.63597,-22.87301 -1.04346,-51.44028 -15.07598,-69.55126 -21.30001,7.8309 -74.52478,10.1897 -61.18381,-26.708545 21.83988,-14.79614 50.99234,-19.4165 77.40676,-20.765018 25.45195,1.114222 46.9676,-25.167222 75.38451,-18.776302 -33.59171,-4.801467 4.36283,-42.8833235 3.95559,-59.9232925 36.15331,-16.7025265 49.11274,42.7468755 42.64544,66.7009885 -30.16379,10.067166 21.02731,5.186658 28.12609,18.604904 25.2729,22.6212 -16.9859,53.347455 1.93977,81.539965 3.75034,23.93462 22.73469,57.13742 1.26387,76.57009 -8.68948,8.06616 -10.16522,-14.96188 -15.43021,8.0488 21.50598,-2.41922 -33.81433,-5.30603 -34.68366,-9.76312 10.01707,8.46433 53.38287,14.82348 36.10924,17.51954 -29.57148,5.81259 -61.65224,-10.62248 -88.94564,-18.52547 -10.85939,-6.84965 -45.72891,-31.55355 -20.26716,-8.57819 47.41219,22.47294 68.4362,33.42831 98.32219,30.40541 14.26688,16.43364 19.5003,37.33724 32.41073,57.38128 31.07673,19.54962 42.07931,51.39003 48.09599,86.02082 14.04813,44.97362 50.6568,83.53333 48.40676,133.01628 z m -15.253,-33.643 c -0.91709,14.40387 -55.79989,8.25177 -25.6353,12.92585 9.79196,0.22377 22.77344,-1.55317 25.6353,-12.92585 z m -260.695,-390.928 c -16.75485,-7.120855 -43.68927,-7.043025 -57.19906,-1.92851 18.85658,4.09363 38.72348,-3.79976 57.19906,1.92851 z m 123.61,20.183 c 12.45934,1.07271 16.5093,-14.22485 0,0 z m 13.10097,-6.78308 c -13.00653,-7.70135 16.49141,-17.95691 0,0 z m -100.35297,19.70708 c -3.89227,-12.97609 -12.38141,-31.99563 -7.1668,-7.164 1.33231,3.181 3.83938,6.00892 7.1668,7.164 z m 76.10617,-13.76011 c -26.20308,-0.83994 -11.39845,-7.83356 0,0 z m -61.38817,21.02111 c 9.35078,8.05031 19.77273,11.27267 31.24219,10.75187 -6.38987,-7.09251 -22.71773,-20.70025 -31.24219,-10.75187 z m 18.619,3.895 c 1.91937,-4.2509 1.2764,2.11462 0,0 z m -32.094,30.806 c 1.95131,10.31094 24.61457,53.93886 12.09892,30.22074 -3.15233,-9.43452 -4.29965,-26.63576 -12.09892,-30.22074 z m 122.34439,41.89123 c 15.59875,-3.01776 2.53387,-8.38646 0,0 z m -22.85639,-8.95923 c -2.36477,16.72377 39.21148,8.90944 12.21552,6.4261 -3.63168,-1.69717 -9.21071,-3.64278 -12.21552,-6.4261 z m -109.602,316.57 c -10.69984,-3.01028 -32.36787,-17.68067 -14.31206,0.40073 12.52265,8.68307 51.97621,-13.42068 19.67109,-0.42705 l -2.65238,0.50158 z"
       id="path6"
       inkscape:connector-curvature="0"
       sodipodi:nodetypes="ccccccccccccccccccccccccccccccccccccccccccccccccccccccccccccccccccccccccccccccccccccccccccccccccccccccccccccccccccccccccccccccccccc" />
  </g>
</svg>
